<?xml version="1.0" encoding="utf-8"?>
<!DOCTYPE svg PUBLIC "-//W3C//DTD SVG 1.1//EN" "http://www.w3.org/Graphics/SVG/1.1/DTD/svg11.dtd">
<svg version="1.1" id="Layer_1" xmlns="http://www.w3.org/2000/svg" xmlns:xlink="http://www.w3.org/1999/xlink" x="0px" y="0px"
	 width="168px" height="168px" viewBox="0 0 168 168" enable-background="new 0 0 168 168" xml:space="preserve">
<g id="XMLID_4_">
	<path id="XMLID_604_" fill="#FCBF8B" d="M41.201,53.502c-2.252,5.358-3.194,11.274-2.6,17.223
		c-2.963-8.229-2.902-17.563,0.885-26.204c1.329-3.035,3.033-5.787,5.032-8.23C42.022,41.594,40.838,47.51,41.201,53.502z"/>
	<path id="XMLID_602_" fill="#F1617F" d="M41.201,53.502c0.218,3.594,0.991,7.215,2.372,10.75c0.663,1.699,1.442,3.314,2.326,4.845
		c-0.436,5.559,0.464,11.085,2.529,16.142c-4.494-3.979-7.838-8.998-9.826-14.513C38.007,64.775,38.949,58.86,41.201,53.502z"/>
	<path id="XMLID_600_" fill="#8E3E64" d="M55.436,80.253c-0.132,1.339-0.519,2.861-0.617,4.599c-0.11,1.938,0.168,4.039,1.225,5.775
		c1.042,1.743,2.899,2.982,4.741,2.977c1.712-0.02,3.133-1.271,3.376-2.578c0.199-1.006,0.217-1.918,0.878-2.09
		c0.046,0.756,0.455,1.777,0.181,2.996c-0.332,1.412-1.56,2.766-3.204,3.276c-1.792,0.582-3.853,0.217-5.52-0.722
		c-1.65-0.91-2.897-2.303-3.852-3.711c-0.886-1.286-1.497-2.559-2.188-3.558c-0.591-0.847-1.356-1.383-2.03-1.981
		c-2.064-5.054-2.964-10.58-2.529-16.14c1.266,2.197,2.746,4.217,4.401,6.044c0.828,0.912,1.699,1.779,2.61,2.594
		C53.821,78.552,54.969,79.204,55.436,80.253z"/>
	<path id="XMLID_598_" fill="#644067" d="M54.818,84.852c0.099-1.736,0.485-3.258,0.617-4.599c0.917,2.053,0.519,4.608,1.567,5.808
		c0.384,0.433,1.051,0.307,1.71-0.201c0.883-0.705,2.042-1.729,3.741-2.292c1.086,0.03,2.537,0.014,4.167,0.502
		c1.771,0.54,3.505,1.651,4.889,3.128c1.334,1.421,2.238,3.026,3.19,4.315c0.785,1.088,1.797,1.663,2.778,2.194
		c-1.201,0.188-2.482,0.399-3.436-0.242c-1.027-0.692-1.843-1.911-2.938-3.069c-1.078-1.162-2.394-2.211-3.84-2.516
		c-1.13-0.247-2.262,0.292-2.225,1.055c-0.661,0.172-0.68,1.084-0.878,2.09c-0.241,1.309-1.664,2.561-3.376,2.578
		c-1.842,0.008-3.699-1.232-4.741-2.977C54.988,88.891,54.709,86.789,54.818,84.852z"/>
	<path id="XMLID_596_" fill="#E9EB83" d="M53.459,28.197c-0.616,0.932-1.009,1.907-1.293,2.817c-0.228,0.785-0.352,1.497-0.509,2.1
		c-0.21,0.833-0.781,1.432-1.429,1.449c-0.84,0.018-1.736-0.35-2.688-0.306c-1.06,0.035-2.077,0.88-3.021,2.032
		c0.93-1.969,2.084-3.41,3.079-4.555c0.489-0.577,0.954-1.2,1.395-1.884c0.516-0.794,1.035-1.687,1.674-2.615
		c1.542-2.22,3.756-4.23,6.342-5.65c2.384-1.301,4.467-2.344,6.666-3.201c3.085-1.205,6.238-1.948,9.376-2.263
		c-2.757,0.992-5.391,2.327-7.833,3.972c-0.609,0.413-1.171,0.91-1.871,1.265c-0.82,0.434-1.852,0.749-2.981,1.183
		C57.807,23.547,54.915,25.256,53.459,28.197z"/>
	<path id="XMLID_594_" fill="#ECBF45" d="M53.459,28.197c-0.862,1.748-1.1,3.789-0.581,5.563c0.458,1.621,1.513,2.872,2.618,3.652
		c0.864,0.62,1.691,0.9,2.095,1.344c0.267,0.312,0.113,0.885-0.311,1.266c-1.198,1.108-3.153,1.378-4.822,1.889
		c-1.133-0.053-2.127-0.125-2.947,0.056c-0.715,0.174-1.21,0.707-1.679,1.214c-0.936,1.015-1.808,2.08-2.613,3.19
		c-1.613,2.217-2.961,4.612-4.019,7.129c-0.363-5.992,0.821-11.907,3.317-17.213c0.946-1.153,1.961-1.997,3.021-2.032
		c0.952-0.044,1.849,0.324,2.688,0.306c0.648-0.018,1.219-0.616,1.429-1.449c0.158-0.602,0.284-1.313,0.509-2.1
		C52.45,30.103,52.844,29.129,53.459,28.197z"/>
	<path id="XMLID_592_" fill="#E96141" d="M50.069,55c-0.461,0.855-0.895,1.737-1.29,2.644c-1.639,3.736-2.579,7.6-2.88,11.452
		c-0.884-1.532-1.663-3.148-2.326-4.845c-1.381-3.535-2.154-7.156-2.372-10.751c1.058-2.517,2.406-4.912,4.019-7.129
		c0.806-1.11,1.677-2.175,2.613-3.19c0.469-0.507,0.964-1.04,1.679-1.215c0.82-0.18,1.814-0.107,2.947-0.055
		c-1.155,0.357-2.195,1.003-2.411,2.076c-0.238,1.222-0.32,2.465-0.381,3.696C49.545,50.147,49.684,52.599,50.069,55z"/>
	<path id="XMLID_590_" fill="#7D3C30" d="M48.779,57.646c0.396-0.908,0.829-1.789,1.29-2.644c0.684,4.285,2.152,8.413,4.319,12.165
		c-0.169,2.119-0.145,4.268,0.08,6.42c0.111,1.074,0.274,2.153,0.489,3.228c0.215,1.077,0.601,2.165,0.479,3.439
		c-0.467-1.049-1.615-1.702-2.525-2.518c-0.911-0.815-1.783-1.681-2.609-2.595c-1.655-1.827-3.136-3.847-4.401-6.044
		C46.198,65.245,47.14,61.381,48.779,57.646z"/>
	<path id="XMLID_588_" fill="#564035" d="M61.551,75.95c0.355,0.863,0.572,1.748,0.407,2.584c-0.176,0.865-0.537,1.673-0.794,2.454
		c-0.24,0.745-0.384,1.426-0.203,1.914c0.175,0.429,0.742,0.621,1.491,0.665c-1.697,0.559-2.858,1.585-3.741,2.289
		c-0.658,0.509-1.327,0.636-1.709,0.201c-1.049-1.197-0.651-3.756-1.567-5.806c0.123-1.274-0.264-2.364-0.479-3.44
		c-0.213-1.073-0.377-2.153-0.488-3.227c-0.226-2.154-0.249-4.302-0.08-6.421C56.268,70.425,58.674,73.399,61.551,75.95z"/>
	<path id="XMLID_585_" fill="#D7A34C" d="M58.121,28.98c-1.26,1.119-1.59,2.876-0.94,3.645c0.261,0.291,0.682,0.294,1.041,0.086
		c0.471-0.259,1.098-0.594,1.833-0.502c1.65,0.191,2.919,2.369,2.526,4.368c-0.422,2.135-2.277,3.862-4.321,4.655
		c-1.991,0.781-4.041,0.753-5.801,0.681c1.669-0.513,3.624-0.781,4.822-1.889c0.423-0.382,0.576-0.954,0.311-1.266
		c-0.404-0.444-1.229-0.724-2.095-1.344c-1.105-0.781-2.16-2.031-2.618-3.652c-0.519-1.774-0.281-3.816,0.581-5.563
		c1.304-1.958,3.446-3.49,5.857-4.202c2.404-0.706,4.769-0.586,6.792-0.47c3.02,0.166,5.79-0.319,8.569-0.102
		c-1.097,0.632-2.153,1.319-3.16,2.054c-0.502,0.367-0.949,0.835-1.512,1.082c-0.592,0.259-1.331,0.28-2.105,0.201
		c-1.809-0.139-3.812-0.517-5.798-0.186C60.159,26.926,58.588,27.904,58.121,28.98z"/>
	<path id="XMLID_583_" fill="#B85428" d="M57.182,32.625c-0.651-0.768-0.32-2.526,0.94-3.645c-0.267,0.618,0.375,0.956,1.396,1.021
		c0.691,0.038,1.521,0.167,2.354,0.581c0.901,0.46,1.751,1.22,2.332,2.224c1.206,2.111,1.019,4.99-0.162,7.243
		c-1.141,2.161-2.941,3.635-4.434,4.892c-1.492,0.793-2.92,1.327-3.748,2.18c-0.749,0.765-1.465,1.57-2.146,2.411
		c-1.363,1.68-2.588,3.507-3.646,5.469c-0.384-2.401-0.523-4.853-0.401-7.317c0.061-1.231,0.142-2.474,0.382-3.695
		c0.216-1.073,1.255-1.72,2.412-2.077c1.759,0.073,3.809,0.1,5.8-0.682c2.043-0.792,3.897-2.519,4.32-4.654
		c0.394-1.999-0.874-4.178-2.526-4.369c-0.736-0.091-1.362,0.244-1.833,0.502C57.863,32.918,57.443,32.916,57.182,32.625z"/>
	<path id="XMLID_581_" fill="#5B311A" d="M57.052,56.211c-1.457,3.468-2.367,7.164-2.664,10.953
		c-2.166-3.75-3.635-7.878-4.319-12.164c1.058-1.962,2.282-3.789,3.646-5.469c0.681-0.839,1.396-1.646,2.146-2.41
		c0.828-0.853,2.255-1.387,3.748-2.18c-1.089,0.907-1.861,1.806-2.034,2.75c-0.171,0.926-0.306,1.863-0.403,2.806
		C56.978,52.383,56.935,54.293,57.052,56.211z"/>
	<path id="XMLID_579_" fill="#5B311A" d="M57.052,56.211c0.2,3.297,0.867,6.617,2.042,9.871c0.342,3.401,1.175,6.725,2.458,9.868
		c-2.877-2.551-5.283-5.525-7.164-8.784C54.685,63.375,55.595,59.679,57.052,56.211z"/>
	<path id="XMLID_577_" fill="#2E2E18" d="M69.194,80.887c-1.865-0.767-3.432-1.303-4.5-2.078c-1.032-0.749-1.941-1.79-3.145-2.858
		c-1.283-3.143-2.115-6.466-2.458-9.868c0.105,0.293,0.216,0.588,0.33,0.88c1.146,2.938,2.645,5.639,4.427,8.067
		c0.889,1.216,1.821,2.336,2.572,3.341C67.125,79.283,68.033,80.09,69.194,80.887z"/>
	<path id="XMLID_575_" fill="#804B1F" d="M68.812,36.904c-0.489-0.218-0.982-0.282-1.363-0.023
		c-0.446,0.312-0.804,1.011-1.319,1.877c-1.28,2.179-3.564,4.597-6.522,6.183c1.492-1.257,3.292-2.732,4.434-4.893
		c1.181-2.253,1.368-5.131,0.162-7.242c-0.581-1.005-1.431-1.765-2.332-2.225c-0.833-0.416-1.664-0.544-2.354-0.582
		c-1.021-0.065-1.663-0.403-1.396-1.021c1.589-1.437,4.186-1.716,6.443-1.099c2.154,0.598,3.866,1.857,5.361,2.874
		c1.233,0.81,2.413,1.06,3.484,1.048c1.071-0.012,2.137,0.024,3.199,0.107c-1.631,0.94-3.041,2.242-4.647,3.111
		C70.73,35.683,69.482,35.835,68.812,36.904z"/>
	<path id="XMLID_573_" fill="#402B16" d="M68.812,36.904c-0.737,1.193-1.366,3.104-2.685,5.146
		c-1.354,2.082-3.048,3.767-3.838,5.448c-2.162,2.648-3.924,5.586-5.238,8.716c-0.117-1.919-0.072-3.829,0.12-5.714
		c0.097-0.942,0.231-1.879,0.403-2.807c0.172-0.943,0.944-1.843,2.034-2.75c2.958-1.586,5.242-4.004,6.522-6.182
		c0.515-0.866,0.873-1.564,1.319-1.878C67.83,36.623,68.325,36.687,68.812,36.904z"/>
	<path id="XMLID_571_" fill="#402D17" d="M61.901,48.353c-2.532,5.781-3.398,11.868-2.808,17.731
		c-1.175-3.256-1.842-6.574-2.042-9.87c1.314-3.128,3.076-6.067,5.238-8.716C62.158,47.781,62.028,48.066,61.901,48.353z"/>
	<path id="XMLID_569_" fill="#272918" d="M62.29,47.498c0.79-1.681,2.484-3.366,3.838-5.449c1.318-2.041,1.948-3.952,2.685-5.146
		c0.484,0.215,1,0.53,1.615,0.716c0.64,0.204,1.415,0.078,2.235-0.127c1.649-0.413,3.329-0.707,5.03-0.878
		c-0.294,0.106-0.586,0.215-0.879,0.331c-2.938,1.147-5.665,2.601-7.823,4.102c-1.049,0.727-2.073,1.777-3.266,2.935
		C64.489,45.191,63.242,46.338,62.29,47.498z"/>
	<path id="XMLID_567_" fill="#DB88B9" d="M48.429,85.236c0.547,1.348,1.186,2.697,1.865,4.285c0.75,1.76,1.699,3.598,3.076,5.177
		c1.292,1.505,2.846,2.629,4.378,3.46c1.259,0.688,2.433,1.171,3.364,1.775c-1.102-0.224-2.288-0.486-3.497-0.94
		c-1.327-0.483-2.614-1.183-3.81-2.041c-2.387-1.731-4.124-3.74-5.672-5.373c-3.057-3.226-5.555-7.082-7.271-11.478
		c-1.205-3.084-1.947-6.236-2.262-9.376C40.59,76.24,43.934,81.26,48.429,85.236z"/>
	<path id="XMLID_565_" fill="#635FAA" d="M77.478,93.708c0.855,0.461,1.737,0.892,2.644,1.289c0.934,0.41,1.888,0.819,2.71,1.478
		c0.877,0.688,1.688,1.508,2.591,2.235c1.837,1.515,4.093,2.59,5.749,1.927c-0.295,1.283-1.988,2.008-3.85,1.951
		c-2.027-0.066-4.021-0.79-5.934-0.697c-1.836,0.08-3.613,0.574-5.41,0.683c-1.259-0.528-2.486-1.13-3.676-1.802
		c-1.169-0.649-1.853-1.893-2.052-3.474c-0.223-1.776-0.32-3.862-1.289-5.719c-0.882-1.709-2.612-3.013-3.922-2.644
		c-0.037-0.763,1.094-1.303,2.225-1.056c1.446,0.306,2.762,1.353,3.84,2.515c1.095,1.158,1.911,2.379,2.938,3.07
		C74.994,94.107,76.277,93.896,77.478,93.708z"/>
	<path id="XMLID_563_" fill="#237F3F" d="M109.2,65.086c-0.198-3.298-0.866-6.618-2.042-9.873c-0.17-1.699-0.555-3.388-0.6-5.288
		c-0.05-2.152-0.06-4.542-0.904-6.82c1.395,2.109,1.953,4.508,3.043,6.325c0.976,1.638,2.229,3.073,3.17,4.702
		C111.564,57.921,110.659,61.62,109.2,65.086z"/>
	<path id="XMLID_561_" fill="#D9D88B" d="M90.275,18.724c-5.361-2.252-11.275-3.195-17.226-2.6
		c8.228-2.963,17.563-2.901,26.205,0.885c3.035,1.329,5.788,3.035,8.229,5.032C102.182,19.547,96.266,18.361,90.275,18.724z"/>
	<path id="XMLID_559_" fill="#CCD742" d="M90.275,18.724c-3.596,0.217-7.216,0.991-10.752,2.371
		c-1.696,0.664-3.314,1.443-4.846,2.325c-2.779-0.217-5.549,0.27-8.569,0.103c-2.022-0.116-4.387-0.236-6.792,0.47
		c-2.411,0.713-4.553,2.244-5.857,4.203c1.455-2.941,4.348-4.65,6.904-5.652c1.129-0.434,2.161-0.749,2.98-1.183
		c0.701-0.355,1.262-0.853,1.871-1.265c2.442-1.646,5.077-2.98,7.834-3.972C79,15.53,84.914,16.472,90.275,18.724z"/>
	<path id="XMLID_557_" fill="#B4D88D" d="M117.826,36.059c-2.706-2.397-5.809-4.555-9.391-6.049
		c-1.701-0.725-3.431-1.254-5.144-1.664c-3.565-4.146-7.983-7.505-13.019-9.621c5.99-0.364,11.903,0.822,17.209,3.317
		C112.105,25.825,115.628,30.674,117.826,36.059z"/>
	<path id="XMLID_555_" fill="#83BE41" d="M88.773,27.592c-0.855-0.463-1.737-0.894-2.643-1.292
		c-3.738-1.637-7.604-2.577-11.455-2.878c1.532-0.884,3.149-1.663,4.844-2.325c3.536-1.38,7.158-2.155,10.753-2.371
		c5.031,2.116,9.451,5.476,13.019,9.621C98.464,27.189,93.57,26.826,88.773,27.592z"/>
	<path id="XMLID_553_" fill="#839138" d="M86.132,26.299c0.905,0.397,1.787,0.83,2.644,1.292c-4.287,0.684-8.416,2.152-12.167,4.317
		c-1.06-0.083-2.125-0.12-3.198-0.106c-1.071,0.01-2.251-0.238-3.484-1.049c-1.496-1.016-3.208-2.277-5.362-2.875
		c-2.257-0.615-4.853-0.337-6.443,1.101c0.467-1.076,2.038-2.054,3.981-2.408c1.985-0.33,3.99,0.048,5.797,0.187
		c0.776,0.077,1.513,0.057,2.106-0.202c0.564-0.246,1.01-0.714,1.512-1.082c1.008-0.735,2.062-1.422,3.16-2.054
		C78.529,23.721,82.394,24.662,86.132,26.299z"/>
	<path id="XMLID_551_" fill="#4FB848" d="M109.496,37.948c0.406,0.982,0.753,1.987,1.043,3.006
		c-1.876-1.921-4.075-3.962-6.951-4.858c-1.413-0.419-2.876-0.561-4.253-0.397c-1.258,0.148-2.368,0.516-3.364,0.794
		c-1.169-1.195-1.475-3.194-2.354-4.88c-0.924-1.781-2.879-2.962-4.842-4.021c4.795-0.764,9.688-0.401,14.52,0.754
		C105.675,31.134,107.93,34.228,109.496,37.948z"/>
	<path id="XMLID_549_" fill="#4A8A40" d="M87.529,34.624c-1.596-0.972-3.49-1.37-5.323-1.816c-1.829-0.447-3.702-0.75-5.599-0.899
		c3.752-2.166,7.881-3.633,12.167-4.317c1.961,1.058,3.916,2.24,4.842,4.021c0.881,1.685,1.187,3.685,2.353,4.88
		c-1.43,0.361-2.819,0.163-4.044-0.384C90.593,35.49,89.208,34.71,87.529,34.624z"/>
	<path id="XMLID_547_" fill="#48461D" d="M87.529,34.624c-3.263-0.132-6.583,0.816-9.838,1.991
		c-1.701,0.172-3.381,0.465-5.031,0.878c-0.818,0.204-1.593,0.329-2.234,0.126c-0.614-0.186-1.13-0.501-1.616-0.716
		c0.67-1.069,1.918-1.221,3.15-1.884c1.607-0.87,3.017-2.171,4.646-3.111c1.897,0.15,3.769,0.451,5.599,0.899
		C84.039,33.254,85.932,33.652,87.529,34.624z"/>
	<path id="XMLID_545_" fill="#334721" d="M77.691,36.615c3.254-1.175,6.574-2.125,9.838-1.991c1.431,0.894,2.361,2.594,3.562,4.243
		c1.222,1.673,2.888,3.333,4.892,3.568c-0.326,0.03-0.66,0.034-0.996-0.035c-3.602-0.533-5.619-4.442-8.432-5.442
		c-1.404-0.504-2.949-0.458-4.434-0.502C80.636,36.415,79.157,36.469,77.691,36.615z"/>
	<path id="XMLID_543_" fill="#75B5E3" d="M75.98,102.572c1.796-0.107,3.573-0.602,5.41-0.682c1.913-0.094,3.907,0.629,5.934,0.696
		c1.861,0.058,3.555-0.668,3.85-1.951c1.053-0.44,1.221-1.989,2.201-3.264c1.087-1.407,2.996-2.146,4.855-2.239
		c1.867-0.113,3.635,0.321,5.271,0.579c1.524,0.249,2.96,0.152,4.22-0.364c-0.979,1.104-2.104,1.885-3.304,2.293
		c-1.122,0.393-2.269,0.594-3.278,1.016c-0.937,0.396-1.725,1.152-2.269,2.126c-0.654,1.219-1.325,2.758-2.657,4.028
		c-3.23,2.248-7.801,1.987-11.52,0.686C81.52,104.376,78.659,103.7,75.98,102.572z"/>
	<path id="XMLID_541_" fill="#33A682" d="M102.509,88.018c0.933-0.274,1.859-0.597,2.779-0.957c3.801-1.483,7.2-3.553,10.136-6.062
		c-0.458,1.707-1.052,3.401-1.781,5.069c-1.522,3.479-3.537,6.586-5.926,9.279c-1.26,0.517-2.695,0.614-4.219,0.364
		c-1.635-0.258-3.404-0.694-5.271-0.578c-1.856,0.095-3.768,0.832-4.854,2.239c-0.98,1.273-1.148,2.822-2.201,3.261
		c0.234-1.104-0.001-2.61,0.598-4.125c0.648-1.608,1.963-2.946,3.441-3.895c1.456-0.931,2.995-1.517,4.344-2.179
		C100.801,89.816,101.794,89.001,102.509,88.018z"/>
	<path id="XMLID_539_" fill="#32A048" d="M105.288,87.061c-0.92,0.36-1.849,0.683-2.779,0.957c2.546-3.516,4.427-7.471,5.55-11.655
		c1.615-1.379,3.119-2.917,4.48-4.599c0.682-0.839,1.327-1.715,1.938-2.627c0.604-0.912,1.323-1.803,1.658-2.891
		c1.092,4.8,0.604,9.857-0.711,14.752C112.488,83.508,109.089,85.577,105.288,87.061z"/>
	<path id="XMLID_537_" fill="#268742" d="M109.2,65.086c1.459-3.467,2.364-7.165,2.666-10.956c1,1.735,2.026,3.132,2.51,4.941
		c0.563,2.104,1.171,4.63,1.759,7.173c-0.335,1.087-1.052,1.979-1.658,2.889c-0.609,0.912-1.256,1.79-1.938,2.628
		c-1.363,1.682-2.865,3.22-4.48,4.598C109.029,72.728,109.434,68.924,109.2,65.086z"/>
	<path id="XMLID_535_" fill="#386A33" d="M95.98,42.435c0.854-0.079,1.609-0.538,2.084-1.181c0.528-0.73,1.399-1.271,2.367-1.337
		c2.026-0.142,3.988,1.347,5.223,3.189c0.844,2.277,0.854,4.667,0.904,6.821c0.045,1.901,0.43,3.589,0.6,5.289
		c-0.104-0.294-0.215-0.587-0.33-0.878c-0.571-1.47-1.137-2.989-1.357-4.703c-0.236-1.883-0.451-3.872-1.314-5.6
		c-0.85-1.715-2.404-3.061-3.981-3.026c-0.745,0.012-1.329,0.496-1.934,0.921C97.605,42.365,96.779,42.538,95.98,42.435z"/>
	<path id="XMLID_533_" fill="#343E3E" d="M78.689,86.725c1.731,0.729,3.523,1.319,5.356,1.768c1.83,0.441,3.501,0.91,5.062,1.145
		c-3.521,2.264-7.342,3.387-11.629,4.072c-0.981-0.531-1.994-1.105-2.778-2.195c-0.954-1.289-1.856-2.895-3.19-4.314
		c-1.383-1.477-3.117-2.588-4.889-3.128c-1.629-0.489-3.081-0.472-4.167-0.502c1.592-0.556,3.464-0.611,5.255-0.208
		c1.763,0.396,3.341,1.182,4.734,1.985c1.251,0.702,2.345,1.391,3.378,1.437C76.773,86.809,77.729,86.782,78.689,86.725z"/>
	<path id="XMLID_531_" fill="#2F3D26" d="M78.68,86.723c3.295-0.197,6.625-0.867,9.88-2.041c3.4-0.341,6.725-1.179,9.866-2.458
		c-2.552,2.875-5.842,5.183-9.329,7.42c-1.562-0.235-3.234-0.707-5.063-1.15C82.202,88.044,80.411,87.452,78.68,86.723z"/>
	<path id="XMLID_529_" fill="#2B371D" d="M103.964,73.798c-1.471,3.134-3.347,5.953-5.537,8.426
		c-3.143,1.282-6.464,2.114-9.866,2.458c0.293-0.104,0.586-0.217,0.881-0.331C95.318,82.054,100.236,78.359,103.964,73.798z"/>
	<path id="XMLID_527_" fill="#2C3B20" d="M61.551,75.95c1.203,1.068,2.113,2.11,3.144,2.858c1.068,0.775,2.635,1.312,4.5,2.078
		c3.163,2.165,6.365,4.522,9.494,5.837c-0.96,0.06-1.917,0.084-2.868,0.057c-1.031-0.045-2.124-0.733-3.378-1.436
		c-1.391-0.804-2.971-1.589-4.734-1.985c-1.791-0.403-3.664-0.348-5.255,0.208c-0.75-0.042-1.316-0.234-1.491-0.664
		c-0.183-0.489-0.039-1.17,0.203-1.914c0.258-0.78,0.619-1.59,0.794-2.454C62.123,77.698,61.906,76.813,61.551,75.95z"/>
	<path id="XMLID_525_" fill="#2A391E" d="M88.562,84.682c-3.254,1.176-6.575,1.842-9.873,2.043
		c-3.129-1.314-6.332-3.673-9.494-5.837c0.35,0.153,0.705,0.309,1.068,0.467c1.798,0.827,3.44,1.679,4.951,2.11
		c1.476,0.428,2.961,0.755,4.451,0.984C82.643,84.907,85.632,84.975,88.562,84.682z"/>
	<path id="XMLID_469_" fill="#CDE193" d="M117.826,36.059c-2.197-5.385-5.721-10.234-10.342-14.017
		c7.912,3.726,14.472,10.364,17.904,19.154c0.303,0.772,0.564,1.55,0.817,2.323c0.269,0.829,0.901,1.617,1.578,2.49
		c1.606,2.014,3.474,4.501,3.653,7.529c-0.354-2.801-2.153-5.123-4-6.839c-0.836-0.783-1.662-1.441-2.346-2.106
		c-0.605-0.591-1.004-1.245-1.414-1.854C122.031,40.298,120.072,38.047,117.826,36.059z"/>
	<path id="XMLID_467_" fill="#91CC85" d="M123.551,67.618c-0.85-1.119-1.82-2.357-2.51-3.879c-0.71-1.572-1.068-3.413-0.686-5.143
		c0.371-1.679,1.521-3.109,2.908-3.704c1.225-0.518,2.379-0.251,3.077-0.5c1.058-0.41,0.202-3.021-1.892-4.333
		c-0.363-0.945-1.432-1.771-2.485-2.72c-1.011-0.897-1.728-2.064-1.938-3.398c-0.428-2.708-1.172-5.354-2.2-7.881
		c2.245,1.989,4.204,4.239,5.853,6.684c0.411,0.609,0.811,1.263,1.414,1.853c0.684,0.665,1.51,1.322,2.344,2.106
		c1.849,1.716,3.649,4.038,4.002,6.84c0.183,2.888-1.691,5.851-4.15,6.193c-1.109,0.147-2.102-0.269-2.818-0.738
		c-0.561-0.367-1.08-0.668-1.529-0.519c-1.094,0.372-1.576,2.252-1.308,3.981C121.938,64.386,122.925,66.053,123.551,67.618z"/>

		<linearGradient id="XMLID_2_" gradientUnits="userSpaceOnUse" x1="-6911.0205" y1="8856.8945" x2="-6839.1655" y2="8856.8945" gradientTransform="matrix(-0.5238 -0.8519 -0.8519 0.5238 4059.2407 -10455.9287)">
		<stop  offset="0" style="stop-color:#D8E02F"/>
		<stop  offset="1" style="stop-color:#53B949"/>
	</linearGradient>
	<path id="XMLID_466_" fill="url(#XMLID_2_)" d="M110.539,40.954c-0.29-1.018-0.637-2.023-1.043-3.006
		c-1.566-3.721-3.821-6.814-6.203-9.603c1.713,0.409,3.441,0.938,5.145,1.663c3.582,1.497,6.684,3.653,9.39,6.051
		c1.03,2.525,1.772,5.173,2.2,7.879c0.211,1.334,0.929,2.502,1.939,3.399c1.055,0.949,2.123,1.776,2.484,2.721
		c-1.576-0.995-3.438-1.396-5.115-1.837c-1.453-0.39-2.555-1.152-3.383-2.067C114.298,44.33,112.343,42.821,110.539,40.954z"/>
	<path id="XMLID_464_" fill="#91CC85" d="M123.551,67.618c-0.626-1.565-1.613-3.232-1.917-5.161
		c-0.271-1.729,0.212-3.609,1.306-3.982c0.451-0.149,0.971,0.151,1.531,0.519c0.719,0.47,1.709,0.885,2.818,0.739
		c2.46-0.341,4.334-3.305,4.148-6.194c0.272,2.06-0.369,4.192-1.692,5.545c-1.185,1.191-2.681,1.545-3.81,1.8
		c-0.783,0.177-1.399,0.653-1.41,1.29c-0.014,0.828,0.475,1.75,1.121,2.6c1.433,1.907,3.555,3.452,3.266,5.421
		c-0.336,2.243-1.199,4.419-2.145,6.579c-1.33,3.035-3.033,5.789-5.033,8.231c1.25-2.652,2.168-5.457,2.731-8.348
		c0.281-1.446,0.476-2.912,0.572-4.393c0.051-0.742,0.173-1.505-0.044-2.235C124.758,69.239,124.184,68.473,123.551,67.618z"/>
	<path id="XMLID_408_" fill="#BCE5EE" d="M107.717,95.348c5.383-2.195,10.23-5.712,14.018-10.341
		c-1.859,3.956-4.451,7.575-7.676,10.632c-1.613,1.531-3.385,2.922-5.303,4.141c-0.957,0.611-1.932,1.15-2.938,1.378
		c-0.939,0.217-1.885,0.225-2.803,0.231c-1.199,0.023-2.388,0.125-3.352,0.664c-1.086,0.617-2.049,1.783-3.453,2.76
		c1.33-1.271,2.002-2.812,2.655-4.029c0.546-0.975,1.332-1.73,2.269-2.126c1.01-0.423,2.156-0.62,3.279-1.015
		C105.613,97.23,106.738,96.452,107.717,95.348z"/>
	<path id="XMLID_351_" fill="#7CC681" d="M107.717,95.348c2.389-2.693,4.402-5.802,5.926-9.279c0.729-1.668,1.323-3.361,1.781-5.069
		c2.119-1.812,3.997-3.854,5.609-6.073c0.806-1.108,1.547-2.262,2.215-3.452c0.665-1.178,0.828-2.518,0.303-3.854
		c0.633,0.854,1.206,1.621,1.44,2.414c0.219,0.728,0.097,1.495,0.045,2.233c-0.099,1.481-0.289,2.946-0.572,4.394
		c-0.562,2.89-1.481,5.694-2.729,8.348C117.947,89.636,113.1,93.15,107.717,95.348z"/>
	<path id="XMLID_349_" fill="#75C049" d="M116.137,66.246c0.34-1.097,0.27-2.49,0.356-4.054c0.198-3.627,1.772-7.419,4.481-9.204
		c1.154-0.774,2.252-1.09,2.947-1.521c0.53-0.32,0.739-0.878,0.528-1.407c2.095,1.312,2.948,3.924,1.892,4.333
		c-0.697,0.249-1.854-0.018-3.076,0.5c-1.389,0.594-2.537,2.025-2.908,3.704c-0.385,1.729-0.026,3.57,0.686,5.143
		c0.688,1.522,1.66,2.761,2.51,3.879c0.523,1.337,0.362,2.678-0.302,3.857c-0.67,1.188-1.41,2.341-2.217,3.452
		c-1.612,2.216-3.489,4.259-5.609,6.07C116.74,76.104,117.227,71.046,116.137,66.246z"/>
	<path id="XMLID_347_" fill="#4FB848" d="M116.492,62.192c-0.088,1.563-0.018,2.957-0.357,4.054
		c-0.588-2.542-1.195-5.071-1.759-7.173c-0.481-1.809-1.51-3.207-2.51-4.941c0.334-4.24-0.058-8.604-1.328-13.178
		c1.804,1.869,3.758,3.376,5.414,5.204c0.827,0.914,1.93,1.677,3.382,2.065c1.682,0.441,3.541,0.842,5.116,1.837
		c0.211,0.529,0.002,1.086-0.528,1.407c-0.695,0.433-1.795,0.749-2.949,1.521C118.268,54.773,116.691,58.564,116.492,62.192z"/>
	<path id="XMLID_234_" fill="#45B649" d="M105.654,43.105c-0.938-2.5-2.979-4.42-5.236-5.082c-1.82-0.512-3.514-0.566-4.447-1.532
		c0.996-0.278,2.106-0.646,3.364-0.793c1.377-0.163,2.84-0.023,4.253,0.397c2.876,0.896,5.076,2.937,6.951,4.857
		c1.271,4.574,1.662,8.938,1.328,13.178c-0.941-1.629-2.194-3.064-3.17-4.702C107.607,47.614,107.049,45.214,105.654,43.105z"/>
	<path id="XMLID_232_" fill="#308F44" d="M105.654,43.105c-1.233-1.842-3.196-3.333-5.223-3.19
		c-0.968,0.068-1.839,0.607-2.367,1.337c-0.475,0.644-1.229,1.103-2.084,1.181c-2.004-0.234-3.67-1.896-4.891-3.568
		c-1.199-1.649-2.132-3.348-3.561-4.243c1.676,0.086,3.062,0.866,4.394,1.483c1.224,0.548,2.614,0.746,4.044,0.384
		c0.938,0.965,2.631,1.018,4.449,1.532C102.676,38.686,104.718,40.605,105.654,43.105z"/>
	<path id="XMLID_230_" fill="#274C36" d="M107.158,55.214c1.176,3.255,1.844,6.574,2.042,9.873
		c-1.313,3.128-3.073,6.064-5.236,8.711c0.132-0.281,0.263-0.565,0.388-0.855C106.887,67.164,107.752,61.076,107.158,55.214z"/>
	<path id="XMLID_174_" fill="#845EA8" d="M48.429,85.236c0.673,0.6,1.438,1.136,2.03,1.981c0.691,0.999,1.3,2.271,2.187,3.558
		c0.954,1.408,2.201,2.801,3.853,3.711c1.666,0.938,3.725,1.304,5.52,0.722c1.643-0.513,2.873-1.864,3.204-3.276
		c0.275-1.22-0.134-2.24-0.18-2.996c1.309-0.369,3.039,0.936,3.921,2.645c0.969,1.855,1.066,3.941,1.289,5.719
		c0.2,1.583,0.886,2.823,2.053,3.475c1.19,0.672,2.418,1.271,3.676,1.801c-2.996,0.182-6.04,0.205-8.629-0.68
		c-1.055-0.381-1.965-0.846-2.875-1.172c-0.991-0.344-2.119-0.557-3.364-0.789c-0.932-0.605-2.105-1.09-3.363-1.775
		c-1.533-0.832-3.087-1.955-4.378-3.46c-1.378-1.579-2.326-3.419-3.077-5.177C49.613,87.936,48.976,86.584,48.429,85.236z"/>
	<path id="XMLID_145_" fill="#335373" d="M80.122,94.997c-0.908-0.397-1.789-0.828-2.644-1.289c4.287-0.687,8.108-1.81,11.629-4.072
		c1.719,0.265,3.721-0.088,6.094-0.459c2.521-0.364,5.099-0.503,7.309-1.159c-0.714,0.983-1.707,1.799-2.955,2.422
		c-1.349,0.66-2.888,1.244-4.344,2.178c-1.479,0.947-2.793,2.285-3.441,3.895c-0.599,1.514-0.362,3.021-0.598,4.127
		c-1.656,0.662-3.912-0.414-5.749-1.928c-0.903-0.729-1.714-1.548-2.591-2.236C82.009,95.816,81.056,95.407,80.122,94.997z"/>
	<path id="XMLID_143_" fill="#315144" d="M98.427,82.224c3.481-1.423,6.738-3.394,9.632-5.861c-1.123,4.185-3.004,8.142-5.55,11.655
		c-2.21,0.656-4.786,0.795-7.31,1.159c-2.371,0.371-4.374,0.724-6.092,0.459C92.596,87.395,95.878,85.102,98.427,82.224z"/>
	<path id="XMLID_141_" fill="#1E4525" d="M98.427,82.224c2.19-2.473,4.066-5.292,5.537-8.426c2.163-2.647,3.923-5.583,5.236-8.711
		c0.231,3.835-0.171,7.641-1.144,11.276C105.165,78.83,101.908,80.801,98.427,82.224z"/>
</g>
<text transform="matrix(1 0 0 1 6.5474 132.2812)"><tspan x="0" y="0" fill="#393939" font-family="'Roboto-Bold'" font-size="21">Prémiová </tspan><tspan x="95.279" y="0" fill="#393939" font-family="'Roboto-Regular'" font-size="21">Výživa</tspan></text>
<text transform="matrix(1 0 0 1 18.522 145.2891)"><tspan x="0" y="0" fill="#231F20" font-family="'NotoSans-Bold'" font-size="7">Future </tspan><tspan x="25.214" y="0" fill="#231F20" font-family="'NotoSans'" font-size="7">Nature - live future, think natur</tspan><tspan x="127.637" y="0" fill="#231F20" font-family="'NotoSans'" font-size="7">e</tspan></text>
</svg>
