<?xml version="1.0" encoding="utf-8"?>
<!DOCTYPE svg PUBLIC "-//W3C//DTD SVG 1.1//EN" "http://www.w3.org/Graphics/SVG/1.1/DTD/svg11.dtd">
<svg version="1.1" id="Layer_1" xmlns="http://www.w3.org/2000/svg" xmlns:xlink="http://www.w3.org/1999/xlink" x="0px" y="0px"
	 width="250px" height="85px" viewBox="0 0 250 85" enable-background="new 0 0 250 85" xml:space="preserve">
<g>
	<path fill="#393939" d="M118.33,39.305h-6.033v6.231h-3.142v-15.25h9.929v2.545h-6.787v3.938h6.033V39.305z"/>
	<path fill="#393939" d="M127.263,44.384c-0.747,0.908-1.78,1.361-3.1,1.361c-1.215,0-2.142-0.349-2.781-1.047
		c-0.639-0.698-0.965-1.721-0.979-3.068v-7.426h3.027v7.329c0,1.182,0.538,1.772,1.613,1.772c1.026,0,1.731-0.356,2.116-1.07v-8.031
		h3.037v11.332h-2.849L127.263,44.384z"/>
	<path fill="#393939" d="M136.103,31.418v2.786h1.938v2.22h-1.938v5.656c0,0.419,0.08,0.719,0.242,0.9
		c0.16,0.182,0.467,0.272,0.922,0.272c0.334,0,0.631-0.024,0.889-0.073v2.294c-0.594,0.181-1.203,0.271-1.832,0.271
		c-2.123,0-3.205-1.071-3.246-3.215v-6.106h-1.656v-2.22h1.656v-2.786H136.103z"/>
	<path fill="#393939" d="M146.513,44.384c-0.746,0.908-1.779,1.361-3.1,1.361c-1.215,0-2.143-0.349-2.781-1.047
		s-0.965-1.721-0.979-3.068v-7.426h3.027v7.329c0,1.182,0.537,1.772,1.611,1.772c1.027,0,1.732-0.356,2.117-1.07v-8.031h3.037
		v11.332h-2.85L146.513,44.384z"/>
	<path fill="#393939" d="M158.097,37.042c-0.412-0.056-0.775-0.083-1.088-0.083c-1.146,0-1.896,0.387-2.252,1.163v7.415h-3.027
		V34.204h2.859l0.084,1.351c0.607-1.041,1.449-1.561,2.523-1.561c0.336,0,0.65,0.045,0.943,0.136L158.097,37.042z"/>
	<path fill="#393939" d="M164.569,45.745c-1.66,0-3.014-0.509-4.057-1.528c-1.045-1.02-1.566-2.378-1.566-4.075v-0.293
		c0-1.138,0.219-2.156,0.66-3.053c0.439-0.897,1.062-1.588,1.869-2.074c0.807-0.485,1.727-0.728,2.76-0.728
		c1.549,0,2.77,0.489,3.66,1.466s1.336,2.363,1.336,4.158v1.236h-7.217c0.098,0.74,0.393,1.334,0.885,1.78
		c0.492,0.447,1.115,0.671,1.869,0.671c1.166,0,2.078-0.423,2.734-1.268l1.486,1.665c-0.453,0.643-1.068,1.144-1.842,1.503
		C166.372,45.565,165.513,45.745,164.569,45.745z M164.224,36.435c-0.6,0-1.086,0.204-1.461,0.61
		c-0.373,0.407-0.611,0.989-0.717,1.746h4.211v-0.242c-0.014-0.673-0.195-1.194-0.545-1.562
		C165.362,36.619,164.866,36.435,164.224,36.435z"/>
	<path fill="#393939" d="M188.616,45.536h-2.021l-7.678-11.751v11.751h-2.021v-15.25h2.021l7.699,11.804V30.287h2V45.536z"/>
	<path fill="#393939" d="M198.882,45.536c-0.113-0.224-0.203-0.621-0.273-1.194c-0.9,0.937-1.977,1.403-3.225,1.403
		c-1.117,0-2.035-0.315-2.75-0.947c-0.717-0.632-1.074-1.434-1.074-2.403c0-1.18,0.449-2.097,1.346-2.75
		c0.898-0.653,2.16-0.979,3.787-0.979h1.885v-0.89c0-0.677-0.203-1.217-0.607-1.618s-1.002-0.602-1.791-0.602
		c-0.691,0-1.271,0.174-1.738,0.523c-0.469,0.349-0.701,0.771-0.701,1.267h-1.949c0-0.565,0.201-1.112,0.604-1.639
		c0.4-0.527,0.945-0.944,1.633-1.252c0.688-0.307,1.443-0.46,2.268-0.46c1.307,0,2.328,0.326,3.068,0.979s1.125,1.552,1.152,2.697
		v5.216c0,1.04,0.133,1.867,0.398,2.481v0.168H198.882z M195.665,44.06c0.607,0,1.184-0.157,1.729-0.472s0.939-0.723,1.184-1.226
		v-2.325h-1.518c-2.375,0-3.562,0.695-3.562,2.084c0,0.607,0.203,1.082,0.607,1.424C194.511,43.889,195.03,44.06,195.665,44.06z"/>
	<path fill="#393939" d="M206.181,31.46v2.744h2.115v1.498h-2.115v7.037c0,0.454,0.094,0.795,0.283,1.022
		c0.188,0.227,0.51,0.341,0.963,0.341c0.223,0,0.531-0.042,0.922-0.126v1.562c-0.51,0.139-1.006,0.208-1.488,0.208
		c-0.865,0-1.518-0.262-1.957-0.785s-0.66-1.268-0.66-2.23v-7.028h-2.062v-1.498h2.062V31.46H206.181z"/>
	<path fill="#393939" d="M217.556,44.415c-0.756,0.888-1.861,1.33-3.32,1.33c-1.209,0-2.129-0.351-2.76-1.052
		c-0.633-0.702-0.951-1.74-0.959-3.116v-7.373h1.938v7.321c0,1.717,0.699,2.576,2.096,2.576c1.479,0,2.463-0.552,2.953-1.655v-8.242
		h1.938v11.332h-1.844L217.556,44.415z"/>
	<path fill="#393939" d="M227.86,35.942c-0.293-0.049-0.611-0.073-0.953-0.073c-1.271,0-2.133,0.541-2.586,1.624v8.043h-1.939
		V34.204h1.887l0.031,1.309c0.635-1.012,1.535-1.519,2.701-1.519c0.377,0,0.664,0.049,0.859,0.146V35.942z"/>
	<path fill="#393939" d="M234.146,45.745c-1.537,0-2.787-0.504-3.75-1.513s-1.445-2.358-1.445-4.048v-0.356
		c0-1.124,0.215-2.128,0.645-3.011s1.029-1.574,1.801-2.074c0.771-0.499,1.607-0.749,2.508-0.749c1.475,0,2.619,0.485,3.436,1.456
		c0.816,0.971,1.227,2.36,1.227,4.168v0.807h-7.678c0.027,1.117,0.354,2.02,0.979,2.708s1.42,1.031,2.383,1.031
		c0.686,0,1.264-0.14,1.738-0.419c0.477-0.279,0.891-0.649,1.248-1.11l1.184,0.922C237.468,45.016,236.044,45.745,234.146,45.745z
		 M233.903,35.586c-0.781,0-1.438,0.285-1.969,0.854c-0.529,0.569-0.857,1.367-0.984,2.393h5.678v-0.146
		c-0.057-0.984-0.322-1.747-0.797-2.289C235.356,35.857,234.714,35.586,233.903,35.586z"/>
</g>
<g>
	<path d="M139.384,56.216h-0.561v-4.856h0.561V56.216z"/>
	<path d="M140.427,51.861c0-0.125,0.033-0.215,0.096-0.271c0.064-0.056,0.143-0.084,0.236-0.084c0.088,0,0.164,0.028,0.229,0.084
		c0.066,0.057,0.1,0.146,0.1,0.271c0,0.123-0.033,0.214-0.1,0.271c-0.064,0.059-0.141,0.088-0.229,0.088
		c-0.094,0-0.172-0.029-0.236-0.088C140.46,52.075,140.427,51.984,140.427,51.861z M141.032,56.216h-0.561v-3.427h0.561V56.216z"/>
	<path d="M142.874,56.216l-1.299-3.427h0.604l0.727,2.019c0.145,0.406,0.234,0.709,0.275,0.909h0.023
		c0.008-0.027,0.016-0.059,0.023-0.093c0.01-0.034,0.021-0.071,0.033-0.112c0.014-0.04,0.09-0.275,0.232-0.704l0.729-2.019h0.6
		l-1.301,3.427H142.874z"/>
	<path d="M146.823,56.278c-0.516,0-0.918-0.155-1.211-0.467c-0.291-0.311-0.438-0.739-0.438-1.284c0-0.55,0.137-0.987,0.408-1.312
		c0.273-0.326,0.641-0.488,1.105-0.488c0.43,0,0.773,0.139,1.029,0.416c0.256,0.278,0.385,0.654,0.385,1.129v0.34h-2.348
		c0.01,0.39,0.109,0.685,0.297,0.887s0.453,0.303,0.795,0.303c0.184,0,0.357-0.017,0.521-0.049s0.357-0.095,0.578-0.188v0.493
		c-0.189,0.081-0.367,0.139-0.533,0.172C147.245,56.262,147.05,56.278,146.823,56.278z M146.683,53.185
		c-0.27,0-0.48,0.087-0.637,0.26s-0.25,0.413-0.279,0.721h1.746c-0.004-0.32-0.078-0.563-0.223-0.73
		C147.147,53.269,146.944,53.185,146.683,53.185z"/>
	<path d="M152.21,53.226h-0.865v2.99h-0.561v-2.99h-0.6v-0.263l0.6-0.193v-0.196c0-0.416,0.09-0.729,0.271-0.937
		c0.184-0.208,0.463-0.312,0.842-0.312c0.219,0,0.441,0.039,0.666,0.116l-0.15,0.439c-0.193-0.062-0.363-0.093-0.51-0.093
		c-0.189,0-0.33,0.062-0.42,0.187c-0.092,0.125-0.139,0.323-0.139,0.594v0.222h0.865V53.226z"/>
	<path d="M153.362,52.789v2.206c0,0.277,0.062,0.482,0.186,0.617c0.123,0.134,0.316,0.201,0.576,0.201
		c0.352,0,0.607-0.098,0.768-0.294c0.16-0.195,0.24-0.511,0.24-0.945v-1.785h0.564v3.427h-0.461l-0.082-0.452h-0.027
		c-0.102,0.164-0.246,0.291-0.434,0.38c-0.188,0.09-0.404,0.135-0.652,0.135c-0.412,0-0.723-0.099-0.932-0.297
		c-0.209-0.197-0.314-0.514-0.314-0.948v-2.244H153.362z"/>
	<path d="M157.929,55.819c0.072,0,0.158-0.007,0.256-0.021s0.172-0.031,0.221-0.05v0.431c-0.051,0.022-0.133,0.045-0.242,0.066
		c-0.107,0.022-0.219,0.033-0.332,0.033c-0.67,0-1.004-0.353-1.004-1.059v-1.994h-0.484v-0.269l0.49-0.225l0.225-0.73h0.334v0.787
		h0.99v0.437h-0.99v1.979c0,0.198,0.047,0.35,0.143,0.456C157.628,55.767,157.761,55.819,157.929,55.819z"/>
	<path d="M159.62,52.789v2.206c0,0.277,0.062,0.482,0.186,0.617c0.123,0.134,0.316,0.201,0.576,0.201
		c0.352,0,0.607-0.098,0.768-0.294c0.16-0.195,0.24-0.511,0.24-0.945v-1.785h0.564v3.427h-0.461l-0.082-0.452h-0.027
		c-0.102,0.164-0.246,0.291-0.434,0.38c-0.188,0.09-0.404,0.135-0.652,0.135c-0.412,0-0.723-0.099-0.932-0.297
		c-0.209-0.197-0.314-0.514-0.314-0.948v-2.244H159.62z"/>
	<path d="M164.64,52.727c0.152,0,0.287,0.012,0.402,0.037l-0.068,0.519c-0.127-0.029-0.25-0.044-0.371-0.044
		c-0.182,0-0.35,0.05-0.504,0.149c-0.156,0.1-0.277,0.238-0.363,0.414c-0.088,0.176-0.133,0.371-0.133,0.585v1.829h-0.561v-3.427
		h0.461l0.062,0.627h0.025c0.131-0.227,0.287-0.398,0.465-0.515C164.235,52.784,164.429,52.727,164.64,52.727z"/>
	<path d="M167.077,56.278c-0.514,0-0.916-0.155-1.209-0.467c-0.293-0.311-0.439-0.739-0.439-1.284c0-0.55,0.137-0.987,0.41-1.312
		c0.271-0.326,0.641-0.488,1.104-0.488c0.432,0,0.775,0.139,1.031,0.416c0.256,0.278,0.383,0.654,0.383,1.129v0.34h-2.346
		c0.01,0.39,0.109,0.685,0.295,0.887c0.188,0.202,0.453,0.303,0.797,0.303c0.184,0,0.357-0.017,0.521-0.049s0.357-0.095,0.576-0.188
		v0.493c-0.188,0.081-0.367,0.139-0.533,0.172S167.304,56.278,167.077,56.278z M166.937,53.185c-0.268,0-0.48,0.087-0.637,0.26
		s-0.248,0.413-0.277,0.721h1.744c-0.004-0.32-0.078-0.563-0.221-0.73C167.401,53.269,167.198,53.185,166.937,53.185z"/>
	<path d="M169.812,55.473l0.047,0.072c-0.029,0.112-0.064,0.231-0.105,0.358s-0.084,0.255-0.135,0.385
		c-0.049,0.129-0.1,0.257-0.152,0.385s-0.105,0.25-0.158,0.367h-0.43c0.031-0.127,0.062-0.259,0.092-0.396
		c0.031-0.138,0.059-0.274,0.088-0.41c0.027-0.137,0.053-0.27,0.076-0.4c0.023-0.13,0.043-0.25,0.059-0.36H169.812z"/>
	<path d="M173.628,55.819c0.074,0,0.158-0.007,0.256-0.021s0.172-0.031,0.223-0.05v0.431c-0.053,0.022-0.133,0.045-0.242,0.066
		c-0.109,0.022-0.221,0.033-0.332,0.033c-0.67,0-1.006-0.353-1.006-1.059v-1.994h-0.484v-0.269l0.49-0.225l0.225-0.73h0.334v0.787
		h0.99v0.437h-0.99v1.979c0,0.198,0.049,0.35,0.143,0.456C173.329,55.767,173.46,55.819,173.628,55.819z"/>
	<path d="M177.124,56.216v-2.191c0-0.278-0.061-0.486-0.186-0.622c-0.123-0.137-0.318-0.205-0.582-0.205
		c-0.348,0-0.602,0.097-0.764,0.29c-0.16,0.194-0.242,0.514-0.242,0.959v1.77h-0.561v-4.856h0.561v1.423
		c0,0.188-0.01,0.348-0.029,0.48h0.037c0.102-0.166,0.246-0.296,0.434-0.39s0.398-0.141,0.633-0.141c0.416,0,0.73,0.1,0.939,0.298
		c0.211,0.199,0.316,0.517,0.316,0.954v2.231H177.124z"/>
	<path d="M178.698,51.861c0-0.125,0.031-0.215,0.096-0.271c0.062-0.056,0.141-0.084,0.234-0.084c0.088,0,0.164,0.028,0.23,0.084
		c0.064,0.057,0.098,0.146,0.098,0.271c0,0.123-0.033,0.214-0.098,0.271c-0.066,0.059-0.143,0.088-0.23,0.088
		c-0.094,0-0.172-0.029-0.234-0.088C178.729,52.075,178.698,51.984,178.698,51.861z M179.304,56.216h-0.562v-3.427h0.562V56.216z"/>
	<path d="M182.724,56.216v-2.191c0-0.278-0.061-0.486-0.186-0.622c-0.123-0.137-0.318-0.205-0.582-0.205
		c-0.352,0-0.607,0.098-0.766,0.292c-0.16,0.194-0.24,0.512-0.24,0.95v1.776h-0.561v-3.427h0.453l0.084,0.468h0.031
		c0.105-0.169,0.254-0.299,0.445-0.392s0.402-0.139,0.635-0.139c0.42,0,0.732,0.102,0.936,0.306s0.307,0.521,0.307,0.952v2.231
		H182.724z"/>
	<path d="M184.897,54.452l0.189-0.243l0.219-0.263l1.096-1.157h0.656l-1.387,1.464l1.482,1.963h-0.678l-1.188-1.598l-0.391,0.34
		v1.258h-0.557v-4.856h0.557v2.537l-0.025,0.556H184.897z"/>
	<path d="M191.751,56.216v-2.191c0-0.278-0.061-0.486-0.186-0.622c-0.123-0.137-0.318-0.205-0.582-0.205
		c-0.352,0-0.607,0.098-0.766,0.292c-0.16,0.194-0.24,0.512-0.24,0.95v1.776h-0.561v-3.427h0.453l0.084,0.468h0.031
		c0.105-0.169,0.254-0.299,0.445-0.392s0.402-0.139,0.635-0.139c0.42,0,0.732,0.102,0.936,0.306s0.307,0.521,0.307,0.952v2.231
		H191.751z"/>
	<path d="M195.483,56.216l-0.109-0.487h-0.023c-0.172,0.215-0.342,0.36-0.512,0.436c-0.17,0.076-0.383,0.114-0.641,0.114
		c-0.338,0-0.602-0.089-0.793-0.266s-0.287-0.427-0.287-0.749c0-0.695,0.549-1.059,1.645-1.093l0.58-0.021v-0.203
		c0-0.26-0.055-0.452-0.168-0.575c-0.111-0.124-0.293-0.187-0.539-0.187c-0.182,0-0.354,0.027-0.514,0.082
		c-0.162,0.054-0.312,0.114-0.455,0.181l-0.172-0.422c0.174-0.091,0.361-0.163,0.566-0.215c0.203-0.052,0.404-0.078,0.605-0.078
		c0.414,0,0.721,0.092,0.924,0.274c0.201,0.184,0.303,0.475,0.303,0.874v2.335H195.483z M194.325,55.825
		c0.314,0,0.562-0.084,0.742-0.254s0.27-0.41,0.27-0.723V54.54l-0.506,0.021c-0.393,0.015-0.68,0.077-0.859,0.188
		s-0.27,0.284-0.27,0.521c0,0.179,0.055,0.315,0.164,0.411S194.128,55.825,194.325,55.825z"/>
	<path d="M198.101,55.819c0.072,0,0.158-0.007,0.256-0.021s0.172-0.031,0.221-0.05v0.431c-0.051,0.022-0.133,0.045-0.242,0.066
		c-0.107,0.022-0.219,0.033-0.332,0.033c-0.67,0-1.004-0.353-1.004-1.059v-1.994h-0.484v-0.269l0.49-0.225l0.225-0.73h0.334v0.787
		h0.99v0.437h-0.99v1.979c0,0.198,0.047,0.35,0.143,0.456C197.8,55.767,197.933,55.819,198.101,55.819z"/>
	<path d="M199.792,52.789v2.206c0,0.277,0.062,0.482,0.186,0.617c0.123,0.134,0.316,0.201,0.576,0.201
		c0.352,0,0.607-0.098,0.768-0.294c0.16-0.195,0.24-0.511,0.24-0.945v-1.785h0.564v3.427h-0.461l-0.082-0.452h-0.027
		c-0.102,0.164-0.246,0.291-0.434,0.38c-0.188,0.09-0.404,0.135-0.652,0.135c-0.412,0-0.723-0.099-0.932-0.297
		c-0.209-0.197-0.314-0.514-0.314-0.948v-2.244H199.792z"/>
	<path d="M204.812,52.727c0.15,0,0.285,0.012,0.402,0.037l-0.068,0.519c-0.127-0.029-0.252-0.044-0.373-0.044
		c-0.18,0-0.348,0.05-0.504,0.149c-0.154,0.1-0.275,0.238-0.363,0.414s-0.131,0.371-0.131,0.585v1.829h-0.562v-3.427h0.463
		l0.062,0.627h0.025c0.131-0.227,0.285-0.398,0.465-0.515C204.405,52.784,204.601,52.727,204.812,52.727z"/>
	<path d="M207.249,56.278c-0.514,0-0.916-0.155-1.209-0.467c-0.293-0.311-0.439-0.739-0.439-1.284c0-0.55,0.137-0.987,0.41-1.312
		c0.271-0.326,0.641-0.488,1.104-0.488c0.432,0,0.775,0.139,1.031,0.416c0.256,0.278,0.383,0.654,0.383,1.129v0.34h-2.346
		c0.01,0.39,0.109,0.685,0.295,0.887c0.188,0.202,0.453,0.303,0.797,0.303c0.184,0,0.357-0.017,0.521-0.049s0.357-0.095,0.576-0.188
		v0.493c-0.188,0.081-0.367,0.139-0.533,0.172S207.476,56.278,207.249,56.278z M207.108,53.185c-0.268,0-0.48,0.087-0.637,0.26
		s-0.248,0.413-0.277,0.721h1.744c-0.004-0.32-0.078-0.563-0.221-0.73C207.573,53.269,207.37,53.185,207.108,53.185z"/>
</g>
<g id="XMLID_4_">
	<path id="XMLID_604_" fill="#FCBF8B" d="M14.422,37.097c-1.802,4.287-2.556,9.02-2.08,13.779
		c-2.371-6.583-2.322-14.051,0.708-20.964c1.063-2.428,2.426-4.63,4.026-6.585C15.079,27.57,14.131,32.303,14.422,37.097z"/>
	<path id="XMLID_602_" fill="#F1607E" d="M14.422,37.097c0.174,2.875,0.793,5.772,1.898,8.601c0.53,1.358,1.153,2.651,1.86,3.876
		c-0.348,4.448,0.372,8.87,2.023,12.914c-3.595-3.183-6.271-7.199-7.861-11.611C11.866,46.116,12.62,41.384,14.422,37.097z"/>
	<path id="XMLID_600_" fill="#8D3D63" d="M25.81,58.499c-0.106,1.072-0.415,2.289-0.494,3.679c-0.088,1.551,0.135,3.231,0.98,4.621
		c0.834,1.395,2.319,2.386,3.793,2.38c1.37-0.014,2.507-1.016,2.701-2.062c0.159-0.805,0.174-1.535,0.703-1.672
		c0.037,0.604,0.364,1.422,0.144,2.398c-0.265,1.129-1.248,2.212-2.563,2.621c-1.434,0.465-3.083,0.172-4.416-0.577
		c-1.32-0.729-2.318-1.843-3.082-2.969c-0.709-1.029-1.197-2.047-1.75-2.846c-0.473-0.677-1.085-1.106-1.624-1.585
		c-1.651-4.044-2.371-8.466-2.023-12.914c1.013,1.758,2.197,3.374,3.521,4.836c0.662,0.73,1.359,1.424,2.088,2.076
		C24.518,57.138,25.437,57.66,25.81,58.499z"/>
	<path id="XMLID_598_" fill="#633F67" d="M25.316,62.178c0.079-1.39,0.388-2.606,0.494-3.679c0.733,1.641,0.415,3.688,1.254,4.645
		c0.307,0.347,0.841,0.246,1.368-0.16c0.706-0.563,1.634-1.385,2.993-1.833c0.869,0.024,2.03,0.011,3.334,0.401
		c1.417,0.433,2.804,1.321,3.911,2.503c1.067,1.137,1.79,2.421,2.552,3.452c0.628,0.872,1.438,1.332,2.223,1.757
		c-0.961,0.152-1.986,0.32-2.749-0.194c-0.822-0.554-1.475-1.53-2.351-2.456c-0.862-0.931-1.915-1.769-3.072-2.013
		c-0.904-0.197-1.809,0.234-1.78,0.844c-0.529,0.137-0.544,0.867-0.703,1.672c-0.193,1.047-1.331,2.049-2.701,2.062
		c-1.474,0.006-2.959-0.985-3.793-2.38C25.452,65.409,25.229,63.729,25.316,62.178z"/>
	<path id="XMLID_596_" fill="#EAEB82" d="M24.229,16.852c-0.492,0.746-0.807,1.526-1.034,2.254
		c-0.182,0.628-0.282,1.197-0.408,1.679c-0.168,0.667-0.625,1.146-1.143,1.16c-0.672,0.014-1.389-0.28-2.151-0.245
		c-0.848,0.028-1.661,0.704-2.417,1.626c0.744-1.576,1.667-2.728,2.463-3.644c0.391-0.462,0.763-0.96,1.116-1.507
		c0.413-0.635,0.828-1.35,1.339-2.092c1.234-1.776,3.005-3.385,5.074-4.52c1.907-1.041,3.574-1.875,5.333-2.561
		c2.468-0.964,4.99-1.558,7.502-1.81c-2.206,0.794-4.313,1.861-6.267,3.178c-0.488,0.33-0.937,0.728-1.498,1.012
		c-0.655,0.347-1.481,0.599-2.384,0.946C27.707,13.132,25.393,14.499,24.229,16.852z"/>
	<path id="XMLID_594_" fill="#ECBF45" d="M24.229,16.852c-0.689,1.398-0.88,3.031-0.465,4.451c0.367,1.297,1.211,2.298,2.095,2.922
		c0.692,0.496,1.353,0.72,1.676,1.076c0.214,0.25,0.091,0.708-0.248,1.013c-0.959,0.886-2.523,1.102-3.858,1.511
		c-0.906-0.042-1.702-0.1-2.358,0.044c-0.572,0.14-0.968,0.566-1.343,0.972c-0.749,0.812-1.447,1.664-2.091,2.552
		c-1.29,1.774-2.369,3.69-3.215,5.704c-0.291-4.794,0.657-9.526,2.654-13.771c0.757-0.923,1.569-1.598,2.417-1.626
		c0.762-0.035,1.479,0.259,2.151,0.245c0.519-0.014,0.975-0.493,1.143-1.16c0.126-0.481,0.227-1.05,0.408-1.679
		C23.422,18.377,23.737,17.598,24.229,16.852z"/>
	<path id="XMLID_592_" fill="#E96040" d="M21.516,38.296c-0.369,0.684-0.715,1.39-1.032,2.115c-1.311,2.989-2.063,6.081-2.304,9.162
		c-0.707-1.225-1.33-2.518-1.86-3.876c-1.105-2.828-1.724-5.725-1.898-8.601c0.846-2.014,1.925-3.93,3.215-5.704
		c0.645-0.888,1.342-1.74,2.091-2.552c0.375-0.406,0.771-0.832,1.343-0.972c0.656-0.144,1.452-0.086,2.358-0.044
		c-0.924,0.286-1.756,0.803-1.929,1.661c-0.191,0.978-0.256,1.972-0.305,2.957C21.097,34.413,21.208,36.375,21.516,38.296z"/>
	<path id="XMLID_590_" fill="#7C3B2F" d="M20.484,40.412c0.317-0.726,0.663-1.431,1.032-2.115c0.548,3.428,1.722,6.731,3.456,9.732
		c-0.135,1.695-0.116,3.415,0.064,5.137c0.089,0.86,0.22,1.722,0.391,2.582c0.172,0.861,0.481,1.732,0.383,2.752
		c-0.374-0.839-1.292-1.361-2.02-2.014c-0.729-0.652-1.426-1.346-2.088-2.076c-1.324-1.462-2.509-3.078-3.521-4.836
		C18.42,46.492,19.173,43.4,20.484,40.412z"/>
	<path id="XMLID_588_" fill="#553F34" d="M30.703,55.057c0.284,0.69,0.457,1.398,0.326,2.067c-0.141,0.692-0.43,1.339-0.636,1.963
		c-0.192,0.597-0.307,1.141-0.162,1.531c0.14,0.344,0.594,0.498,1.193,0.532c-1.358,0.448-2.287,1.27-2.993,1.833
		c-0.526,0.406-1.061,0.507-1.368,0.16c-0.839-0.957-0.521-3.004-1.254-4.645c0.098-1.02-0.211-1.891-0.383-2.752
		c-0.171-0.86-0.302-1.722-0.391-2.582c-0.18-1.722-0.199-3.441-0.064-5.137C26.476,50.637,28.401,53.016,30.703,55.057z"/>
	<path id="XMLID_585_" fill="#D7A34C" d="M27.958,17.478c-1.008,0.895-1.272,2.302-0.752,2.916c0.209,0.233,0.546,0.235,0.833,0.069
		c0.377-0.207,0.878-0.475,1.467-0.402c1.32,0.153,2.336,1.896,2.021,3.495c-0.338,1.708-1.822,3.09-3.457,3.724
		c-1.593,0.625-3.233,0.603-4.641,0.545c1.335-0.41,2.899-0.625,3.858-1.511c0.338-0.306,0.461-0.763,0.248-1.013
		c-0.323-0.356-0.983-0.58-1.676-1.076c-0.884-0.625-1.728-1.625-2.095-2.922c-0.415-1.419-0.224-3.053,0.465-4.451
		c1.043-1.567,2.757-2.792,4.686-3.362c1.923-0.565,3.815-0.469,5.434-0.376c2.416,0.133,4.632-0.256,6.856-0.082
		c-0.878,0.506-1.722,1.056-2.528,1.644c-0.402,0.293-0.759,0.668-1.21,0.865c-0.474,0.207-1.064,0.224-1.685,0.161
		c-1.446-0.111-3.05-0.413-4.638-0.149C29.589,15.835,28.332,16.617,27.958,17.478z"/>
	<path id="XMLID_583_" fill="#B75327" d="M27.207,20.394c-0.521-0.614-0.256-2.021,0.752-2.916c-0.213,0.494,0.3,0.765,1.117,0.817
		c0.553,0.03,1.217,0.133,1.883,0.465c0.721,0.368,1.401,0.976,1.866,1.779c0.965,1.689,0.815,3.992-0.13,5.794
		c-0.913,1.729-2.353,2.908-3.547,3.914c-1.194,0.635-2.336,1.062-2.998,1.744c-0.599,0.612-1.172,1.256-1.717,1.929
		c-1.09,1.344-2.07,2.806-2.917,4.375c-0.307-1.921-0.418-3.883-0.32-5.854c0.048-0.985,0.113-1.979,0.305-2.957
		c0.173-0.858,1.004-1.375,1.929-1.661c1.408,0.058,3.048,0.08,4.641-0.545c1.635-0.634,3.118-2.016,3.457-3.724
		c0.315-1.599-0.7-3.342-2.021-3.495c-0.589-0.073-1.09,0.195-1.467,0.402C27.752,20.629,27.416,20.627,27.207,20.394z"/>
	<path id="XMLID_581_" fill="#5B3018" d="M27.103,39.265c-1.165,2.774-1.893,5.731-2.131,8.763
		c-1.733-3.001-2.908-6.304-3.456-9.732c0.847-1.57,1.826-3.031,2.917-4.375c0.545-0.672,1.118-1.316,1.717-1.929
		c0.662-0.682,1.804-1.109,2.998-1.744c-0.871,0.726-1.489,1.446-1.627,2.2c-0.137,0.741-0.245,1.491-0.322,2.246
		C27.044,36.202,27.01,37.73,27.103,39.265z"/>
	<path id="XMLID_579_" fill="#5B3018" d="M27.103,39.265c0.16,2.638,0.694,5.293,1.634,7.897c0.274,2.722,0.94,5.38,1.966,7.895
		c-2.302-2.041-4.227-4.42-5.732-7.028C25.21,44.996,25.938,42.039,27.103,39.265z"/>
	<path id="XMLID_577_" fill="#2D2D15" d="M36.818,59.006c-1.492-0.613-2.746-1.042-3.6-1.662c-0.826-0.6-1.553-1.433-2.516-2.287
		c-1.026-2.515-1.692-5.173-1.966-7.895c0.084,0.235,0.172,0.471,0.264,0.704c0.917,2.351,2.116,4.511,3.542,6.454
		c0.711,0.973,1.457,1.869,2.058,2.673C35.162,57.722,35.888,58.369,36.818,59.006z"/>
	<path id="XMLID_575_" fill="#7F4A1E" d="M36.512,23.818c-0.391-0.174-0.786-0.225-1.09-0.018c-0.357,0.25-0.643,0.809-1.056,1.502
		c-1.024,1.743-2.851,3.677-5.218,4.946c1.194-1.006,2.634-2.185,3.547-3.914c0.945-1.802,1.095-4.105,0.13-5.794
		c-0.465-0.803-1.145-1.411-1.866-1.779c-0.666-0.333-1.331-0.436-1.883-0.465c-0.816-0.053-1.33-0.323-1.117-0.817
		c1.272-1.15,3.349-1.373,5.155-0.88c1.724,0.478,3.093,1.486,4.29,2.3c0.986,0.648,1.93,0.847,2.787,0.839
		c0.857-0.01,1.71,0.019,2.559,0.085c-1.304,0.752-2.432,1.793-3.718,2.489C38.046,22.841,37.048,22.963,36.512,23.818z"/>
	<path id="XMLID_573_" fill="#402A13" d="M36.512,23.818c-0.59,0.955-1.093,2.484-2.148,4.117c-1.083,1.666-2.438,3.014-3.07,4.359
		c-1.73,2.118-3.139,4.469-4.191,6.972c-0.093-1.535-0.058-3.063,0.096-4.571c0.077-0.754,0.185-1.504,0.322-2.246
		c0.138-0.754,0.756-1.474,1.627-2.2c2.367-1.269,4.194-3.203,5.218-4.946c0.413-0.693,0.699-1.252,1.056-1.502
		C35.726,23.593,36.122,23.644,36.512,23.818z"/>
	<path id="XMLID_571_" fill="#402C14" d="M30.983,32.978c-2.026,4.625-2.719,9.495-2.246,14.185
		c-0.94-2.604-1.474-5.259-1.634-7.897c1.052-2.502,2.461-4.854,4.191-6.972C31.188,32.52,31.084,32.748,30.983,32.978z"/>
	<path id="XMLID_569_" fill="#262816" d="M31.294,32.293c0.632-1.345,1.987-2.693,3.07-4.359c1.055-1.633,1.559-3.162,2.148-4.117
		c0.388,0.172,0.8,0.424,1.292,0.573c0.512,0.163,1.132,0.062,1.788-0.102c1.319-0.33,2.664-0.565,4.024-0.702
		c-0.235,0.085-0.469,0.172-0.703,0.264c-2.351,0.918-4.532,2.081-6.259,3.282c-0.839,0.582-1.659,1.422-2.613,2.348
		C33.053,30.448,32.055,31.365,31.294,32.293z"/>
	<path id="XMLID_567_" fill="#DC89BA" d="M20.204,62.487c0.438,1.077,0.949,2.157,1.492,3.428c0.601,1.407,1.359,2.878,2.461,4.142
		c1.034,1.203,2.277,2.102,3.503,2.767c1.007,0.55,1.946,0.937,2.691,1.42c-0.881-0.178-1.83-0.389-2.798-0.752
		c-1.061-0.386-2.091-0.946-3.047-1.633c-1.91-1.387-3.3-2.992-4.538-4.298c-2.446-2.58-4.444-5.667-5.817-9.183
		c-0.964-2.468-1.558-4.989-1.81-7.502C13.933,55.288,16.608,59.305,20.204,62.487z"/>
	<path id="XMLID_565_" fill="#635EAA" d="M43.445,69.264c0.685,0.369,1.39,0.713,2.115,1.031c0.747,0.328,1.51,0.655,2.168,1.182
		c0.702,0.551,1.35,1.207,2.073,1.789c1.47,1.21,3.274,2.072,4.599,1.54c-0.236,1.027-1.59,1.607-3.079,1.562
		c-1.622-0.054-3.216-0.631-4.748-0.557c-1.469,0.063-2.89,0.458-4.328,0.545c-1.007-0.423-1.989-0.904-2.941-1.441
		c-0.935-0.521-1.482-1.514-1.642-2.779c-0.178-1.422-0.256-3.09-1.031-4.575c-0.706-1.368-2.09-2.411-3.138-2.116
		c-0.029-0.609,0.875-1.041,1.78-0.844c1.157,0.244,2.21,1.082,3.072,2.013c0.876,0.926,1.529,1.902,2.351,2.456
		C41.458,69.584,42.484,69.416,43.445,69.264z"/>
	<path id="XMLID_563_" fill="#1F7E3E" d="M68.824,46.365c-0.159-2.639-0.693-5.294-1.633-7.898c-0.137-1.36-0.443-2.711-0.479-4.231
		c-0.04-1.722-0.049-3.634-0.725-5.457c1.116,1.688,1.564,3.607,2.435,5.061c0.78,1.31,1.783,2.458,2.536,3.761
		C70.717,40.633,69.991,43.592,68.824,46.365z"/>
	<path id="XMLID_561_" fill="#D9D88B" d="M53.683,9.273c-4.289-1.802-9.02-2.556-13.78-2.08c6.583-2.371,14.051-2.322,20.965,0.708
		c2.428,1.063,4.63,2.427,6.584,4.026C63.208,9.932,58.476,8.983,53.683,9.273z"/>
	<path id="XMLID_559_" fill="#CCD743" d="M53.683,9.273c-2.876,0.174-5.773,0.793-8.602,1.897c-1.357,0.53-2.651,1.154-3.876,1.86
		c-2.224-0.174-4.44,0.215-6.856,0.082c-1.618-0.093-3.51-0.189-5.434,0.376c-1.929,0.57-3.643,1.795-4.686,3.362
		c1.164-2.353,3.478-3.72,5.524-4.522c0.903-0.347,1.729-0.599,2.384-0.946c0.561-0.284,1.01-0.683,1.498-1.012
		c1.953-1.317,4.061-2.384,6.267-3.178C44.663,6.718,49.394,7.471,53.683,9.273z"/>
	<path id="XMLID_557_" fill="#B4D88C" d="M75.725,23.142c-2.164-1.918-4.646-3.644-7.512-4.84c-1.361-0.58-2.744-1.003-4.115-1.331
		c-2.853-3.316-6.388-6.004-10.416-7.697c4.793-0.291,9.525,0.658,13.769,2.654C71.149,14.954,73.966,18.833,75.725,23.142z"/>
	<path id="XMLID_555_" fill="#82BE41" d="M52.483,16.368c-0.686-0.371-1.391-0.715-2.115-1.034c-2.99-1.31-6.083-2.062-9.164-2.303
		c1.226-0.707,2.519-1.33,3.876-1.86c2.828-1.104,5.726-1.724,8.602-1.897c4.027,1.693,7.562,4.381,10.416,7.697
		C60.234,16.046,56.32,15.755,52.483,16.368z"/>
	<path id="XMLID_553_" fill="#829038" d="M50.368,15.334c0.725,0.318,1.43,0.663,2.115,1.034c-3.43,0.547-6.732,1.722-9.734,3.454
		c-0.848-0.066-1.701-0.096-2.559-0.085c-0.857,0.008-1.801-0.191-2.787-0.839c-1.197-0.813-2.566-1.822-4.29-2.3
		c-1.806-0.492-3.883-0.27-5.155,0.88c0.374-0.861,1.631-1.643,3.185-1.926c1.588-0.264,3.192,0.039,4.638,0.149
		c0.621,0.062,1.21,0.046,1.685-0.161c0.452-0.196,0.808-0.571,1.21-0.865c0.807-0.588,1.65-1.138,2.528-1.644
		C44.286,13.271,47.378,14.024,50.368,15.334z"/>
	<path id="XMLID_551_" fill="#4EB748" d="M69.061,24.653c0.325,0.786,0.602,1.59,0.835,2.405c-1.501-1.537-3.262-3.17-5.562-3.886
		c-1.131-0.336-2.302-0.449-3.403-0.318c-1.006,0.118-1.894,0.412-2.692,0.635c-0.934-0.956-1.179-2.556-1.882-3.904
		c-0.74-1.425-2.304-2.37-3.873-3.217c3.836-0.612,7.75-0.321,11.615,0.603C66.004,19.202,67.806,21.677,69.061,24.653z"/>
	<path id="XMLID_549_" fill="#49893F" d="M51.488,21.994c-1.279-0.778-2.793-1.096-4.26-1.454c-1.464-0.357-2.962-0.599-4.479-0.719
		c3.001-1.732,6.304-2.907,9.734-3.454c1.568,0.847,3.132,1.792,3.873,3.217c0.703,1.348,0.949,2.948,1.882,3.904
		c-1.144,0.289-2.257,0.13-3.236-0.307C53.938,22.687,52.829,22.063,51.488,21.994z"/>
	<path id="XMLID_547_" fill="#47451B" d="M51.488,21.994c-2.612-0.106-5.268,0.653-7.873,1.593c-1.36,0.137-2.705,0.372-4.024,0.702
		c-0.655,0.164-1.275,0.264-1.788,0.102c-0.491-0.149-0.903-0.401-1.292-0.573c0.536-0.855,1.534-0.977,2.52-1.507
		c1.286-0.696,2.414-1.737,3.718-2.489c1.517,0.12,3.014,0.361,4.479,0.719C48.695,20.898,50.208,21.216,51.488,21.994z"/>
	<path id="XMLID_545_" fill="#31461E" d="M43.615,23.587c2.604-0.94,5.26-1.7,7.873-1.593c1.144,0.715,1.889,2.075,2.848,3.394
		c0.977,1.338,2.309,2.667,3.913,2.855c-0.262,0.024-0.529,0.027-0.797-0.028c-2.881-0.426-4.496-3.554-6.745-4.353
		c-1.125-0.404-2.36-0.368-3.548-0.402C45.971,23.427,44.788,23.47,43.615,23.587z"/>
	<path id="XMLID_543_" fill="#73B4E3" d="M42.246,76.356c1.438-0.087,2.859-0.481,4.328-0.545c1.531-0.074,3.126,0.503,4.748,0.557
		c1.489,0.045,2.843-0.535,3.079-1.562c0.843-0.352,0.977-1.59,1.762-2.61c0.869-1.125,2.396-1.715,3.884-1.791
		c1.493-0.093,2.908,0.257,4.216,0.463c1.22,0.199,2.368,0.122,3.376-0.292c-0.784,0.884-1.683,1.508-2.642,1.835
		c-0.898,0.314-1.815,0.474-2.624,0.812c-0.749,0.316-1.379,0.921-1.814,1.701c-0.524,0.975-1.061,2.206-2.126,3.222
		c-2.586,1.799-6.241,1.59-9.215,0.55C46.679,77.799,44.39,77.258,42.246,76.356z"/>
	<path id="XMLID_541_" fill="#33A682" d="M63.47,64.711c0.746-0.221,1.488-0.477,2.225-0.765c3.041-1.188,5.76-2.843,8.108-4.851
		c-0.366,1.366-0.841,2.721-1.425,4.057c-1.219,2.781-2.83,5.268-4.74,7.423c-1.008,0.414-2.157,0.491-3.376,0.292
		c-1.308-0.206-2.723-0.556-4.216-0.463c-1.487,0.076-3.015,0.666-3.884,1.791c-0.785,1.021-0.919,2.259-1.762,2.61
		c0.188-0.884-0.001-2.089,0.478-3.3c0.52-1.287,1.57-2.358,2.755-3.116c1.163-0.745,2.395-1.213,3.475-1.742
		C62.104,66.151,62.899,65.498,63.47,64.711z"/>
	<path id="XMLID_539_" fill="#30A048" d="M65.695,63.946c-0.737,0.288-1.479,0.544-2.225,0.765c2.037-2.812,3.542-5.977,4.439-9.325
		c1.294-1.103,2.497-2.333,3.586-3.678c0.545-0.672,1.062-1.373,1.549-2.103c0.486-0.729,1.06-1.442,1.328-2.312
		c0.873,3.84,0.483,7.886-0.569,11.803C71.455,61.104,68.736,62.759,65.695,63.946z"/>
	<path id="XMLID_537_" fill="#238641" d="M68.824,46.365c1.167-2.773,1.893-5.732,2.133-8.765c0.8,1.388,1.622,2.506,2.008,3.953
		c0.45,1.683,0.937,3.705,1.407,5.739c-0.268,0.87-0.841,1.583-1.328,2.312c-0.487,0.729-1.004,1.431-1.549,2.103
		c-1.09,1.345-2.292,2.575-3.586,3.678C68.688,52.479,69.01,49.435,68.824,46.365z"/>
	<path id="XMLID_535_" fill="#366933" d="M58.248,28.243c0.683-0.063,1.287-0.43,1.667-0.945c0.423-0.584,1.12-1.017,1.894-1.07
		c1.622-0.114,3.191,1.078,4.178,2.552c0.675,1.822,0.685,3.734,0.725,5.457c0.036,1.521,0.343,2.871,0.479,4.231
		c-0.084-0.235-0.172-0.47-0.264-0.703c-0.458-1.176-0.91-2.392-1.086-3.762c-0.19-1.507-0.362-3.098-1.053-4.48
		c-0.679-1.372-1.924-2.449-3.186-2.422c-0.596,0.01-1.064,0.397-1.547,0.738C59.549,28.187,58.887,28.325,58.248,28.243z"/>
	<path id="XMLID_533_" fill="#333D3D" d="M44.414,63.676c1.386,0.583,2.819,1.057,4.285,1.414c1.464,0.354,2.801,0.729,4.051,0.916
		c-2.818,1.811-5.875,2.709-9.305,3.258c-0.785-0.425-1.595-0.885-2.223-1.757c-0.763-1.031-1.485-2.315-2.552-3.452
		c-1.107-1.182-2.494-2.07-3.911-2.503c-1.304-0.391-2.465-0.377-3.334-0.401c1.274-0.445,2.772-0.49,4.205-0.167
		c1.41,0.317,2.673,0.946,3.787,1.589c1.002,0.562,1.877,1.113,2.702,1.147C42.881,63.743,43.646,63.722,44.414,63.676z"/>
	<path id="XMLID_531_" fill="#2E3C25" d="M44.406,63.675c2.637-0.157,5.301-0.695,7.905-1.633c2.721-0.272,5.379-0.943,7.893-1.966
		c-2.041,2.3-4.673,4.146-7.463,5.935c-1.251-0.187-2.587-0.564-4.051-0.919C47.225,64.732,45.792,64.259,44.406,63.675z"/>
	<path id="XMLID_529_" fill="#29361A" d="M64.635,53.335c-1.177,2.507-2.678,4.763-4.431,6.741
		c-2.513,1.025-5.171,1.691-7.893,1.966c0.235-0.084,0.469-0.173,0.704-0.265C57.719,59.94,61.653,56.985,64.635,53.335z"/>
	<path id="XMLID_527_" fill="#2B3B1E" d="M30.703,55.057c0.962,0.854,1.69,1.688,2.516,2.287c0.854,0.62,2.108,1.049,3.6,1.662
		c2.53,1.732,5.092,3.618,7.595,4.67c-0.768,0.046-1.533,0.067-2.295,0.044c-0.824-0.034-1.699-0.586-2.702-1.147
		c-1.113-0.643-2.377-1.271-3.787-1.589c-1.433-0.323-2.931-0.278-4.205,0.167c-0.6-0.034-1.053-0.188-1.193-0.532
		c-0.146-0.391-0.031-0.935,0.162-1.531c0.206-0.624,0.495-1.271,0.636-1.963C31.16,56.455,30.987,55.747,30.703,55.057z"/>
	<path id="XMLID_525_" fill="#28391B" d="M52.312,62.042c-2.603,0.94-5.259,1.474-7.898,1.634c-2.503-1.052-5.065-2.938-7.595-4.67
		c0.279,0.123,0.564,0.247,0.854,0.374c1.439,0.661,2.753,1.342,3.961,1.688c1.181,0.342,2.37,0.604,3.561,0.788
		C47.577,62.223,49.968,62.277,52.312,62.042z"/>
	<path id="XMLID_469_" fill="#CCE192" d="M75.725,23.142c-1.758-4.309-4.576-8.188-8.273-11.214
		c6.33,2.981,11.578,8.292,14.325,15.324c0.241,0.617,0.451,1.24,0.653,1.859c0.216,0.662,0.722,1.293,1.263,1.992
		c1.285,1.611,2.779,3.601,2.923,6.024c-0.282-2.241-1.723-4.099-3.201-5.472c-0.667-0.627-1.33-1.153-1.875-1.685
		c-0.484-0.473-0.804-0.996-1.132-1.483C79.09,26.533,77.522,24.733,75.725,23.142z"/>
	<path id="XMLID_467_" fill="#91CC84" d="M80.305,48.391c-0.679-0.895-1.458-1.886-2.007-3.104
		c-0.569-1.258-0.855-2.731-0.549-4.114c0.297-1.343,1.217-2.488,2.328-2.963c0.979-0.414,1.902-0.201,2.461-0.4
		c0.846-0.328,0.162-2.417-1.513-3.466c-0.291-0.756-1.145-1.417-1.988-2.177c-0.809-0.718-1.383-1.652-1.552-2.719
		c-0.342-2.166-0.937-4.284-1.761-6.305c1.797,1.591,3.365,3.391,4.682,5.346c0.329,0.488,0.648,1.011,1.132,1.483
		c0.546,0.532,1.208,1.058,1.875,1.685c1.478,1.373,2.919,3.23,3.201,5.472c0.146,2.311-1.353,4.681-3.32,4.955
		c-0.887,0.117-1.681-0.215-2.255-0.591c-0.448-0.294-0.865-0.534-1.224-0.415c-0.875,0.298-1.262,1.802-1.045,3.186
		C79.013,45.805,79.804,47.138,80.305,48.391z"/>

		<linearGradient id="XMLID_57_" gradientUnits="userSpaceOnUse" x1="-6133.2422" y1="8993.4609" x2="-6075.751" y2="8993.4609" gradientTransform="matrix(-0.5238 -0.8519 -0.8519 0.5238 4537.6396 -9884.7383)">
		<stop  offset="0" style="stop-color:#D8E02C"/>
		<stop  offset="1" style="stop-color:#52B848"/>
	</linearGradient>
	<path id="XMLID_466_" fill="url(#XMLID_57_)" d="M69.896,27.058c-0.233-0.814-0.51-1.619-0.835-2.405
		c-1.255-2.976-3.057-5.451-4.963-7.683c1.371,0.328,2.754,0.751,4.115,1.331c2.866,1.197,5.348,2.922,7.512,4.84
		c0.825,2.021,1.419,4.139,1.761,6.305c0.168,1.067,0.743,2.001,1.552,2.719c0.844,0.76,1.698,1.421,1.988,2.177
		c-1.261-0.796-2.75-1.117-4.093-1.47c-1.162-0.312-2.044-0.922-2.706-1.653C72.902,29.759,71.338,28.552,69.896,27.058z"/>
	<path id="XMLID_464_" fill="#91CC84" d="M80.305,48.391c-0.501-1.253-1.292-2.586-1.533-4.129
		c-0.217-1.384,0.169-2.888,1.045-3.186c0.359-0.119,0.775,0.121,1.224,0.415c0.574,0.376,1.368,0.708,2.255,0.591
		c1.968-0.273,3.467-2.644,3.32-4.955c0.217,1.648-0.296,3.354-1.355,4.436c-0.948,0.953-2.145,1.237-3.047,1.44
		c-0.627,0.142-1.12,0.522-1.128,1.032c-0.012,0.662,0.379,1.401,0.896,2.08c1.146,1.526,2.843,2.762,2.612,4.337
		c-0.269,1.795-0.958,3.536-1.715,5.265c-1.063,2.427-2.427,4.631-4.026,6.585c0.999-2.123,1.734-4.366,2.185-6.679
		c0.225-1.157,0.379-2.33,0.458-3.514c0.04-0.593,0.139-1.205-0.036-1.788C81.271,49.688,80.81,49.074,80.305,48.391z"/>
	<path id="XMLID_408_" fill="#BBE4ED" d="M67.638,70.575c4.306-1.757,8.184-4.569,11.214-8.272c-1.489,3.165-3.562,6.06-6.142,8.506
		c-1.29,1.224-2.707,2.335-4.241,3.312c-0.767,0.488-1.545,0.92-2.35,1.102c-0.752,0.174-1.508,0.18-2.242,0.185
		c-0.96,0.02-1.91,0.101-2.681,0.531c-0.869,0.494-1.64,1.427-2.764,2.207c1.065-1.016,1.602-2.247,2.126-3.222
		c0.436-0.78,1.065-1.385,1.814-1.701c0.808-0.338,1.725-0.497,2.624-0.812C65.955,72.083,66.854,71.459,67.638,70.575z"/>
	<path id="XMLID_351_" fill="#7BC580" d="M67.638,70.575c1.91-2.155,3.521-4.642,4.74-7.423c0.584-1.336,1.059-2.69,1.425-4.057
		c1.696-1.449,3.198-3.084,4.488-4.858c0.645-0.888,1.238-1.81,1.773-2.762c0.532-0.943,0.662-2.015,0.241-3.085
		c0.505,0.684,0.965,1.297,1.153,1.932c0.175,0.583,0.076,1.195,0.036,1.788c-0.079,1.184-0.232,2.356-0.458,3.514
		c-0.45,2.312-1.186,4.556-2.185,6.679C75.822,66.006,71.944,68.818,67.638,70.575z"/>
	<path id="XMLID_349_" fill="#73C04A" d="M74.373,47.293c0.272-0.878,0.215-1.992,0.286-3.243c0.159-2.902,1.419-5.936,3.585-7.364
		c0.924-0.619,1.803-0.872,2.359-1.217c0.425-0.256,0.591-0.703,0.423-1.125c1.675,1.049,2.359,3.139,1.513,3.466
		c-0.559,0.199-1.482-0.014-2.461,0.4c-1.111,0.475-2.031,1.62-2.328,2.963c-0.306,1.383-0.021,2.856,0.549,4.114
		c0.548,1.218,1.328,2.209,2.007,3.104c0.42,1.07,0.291,2.142-0.241,3.085c-0.535,0.952-1.128,1.874-1.773,2.762
		c-1.29,1.774-2.792,3.409-4.488,4.858C74.856,55.179,75.245,51.133,74.373,47.293z"/>
	<path id="XMLID_347_" fill="#4EB748" d="M74.658,44.05c-0.071,1.251-0.014,2.365-0.286,3.243c-0.47-2.034-0.957-4.057-1.407-5.739
		c-0.386-1.447-1.208-2.565-2.008-3.953c0.267-3.392-0.046-6.883-1.062-10.543c1.442,1.495,3.006,2.701,4.331,4.163
		c0.662,0.731,1.544,1.342,2.706,1.653c1.344,0.353,2.833,0.674,4.093,1.47c0.168,0.423,0.002,0.869-0.423,1.125
		c-0.557,0.346-1.436,0.599-2.359,1.217C76.078,38.114,74.817,41.147,74.658,44.05z"/>
	<path id="XMLID_234_" fill="#43B649" d="M65.987,28.779c-0.749-2-2.383-3.536-4.189-4.065c-1.456-0.41-2.811-0.453-3.559-1.226
		c0.798-0.223,1.686-0.517,2.692-0.635c1.102-0.131,2.272-0.018,3.403,0.318c2.3,0.716,4.062,2.349,5.562,3.886
		c1.016,3.66,1.329,7.151,1.062,10.543c-0.753-1.303-1.756-2.451-2.536-3.761C67.551,32.386,67.103,30.467,65.987,28.779z"/>
	<path id="XMLID_232_" fill="#308E43" d="M65.987,28.779c-0.987-1.474-2.557-2.666-4.178-2.552c-0.774,0.054-1.471,0.486-1.894,1.07
		c-0.38,0.515-0.984,0.882-1.667,0.945c-1.604-0.188-2.936-1.517-3.913-2.855c-0.959-1.319-1.704-2.678-2.848-3.394
		c1.341,0.069,2.45,0.693,3.515,1.187c0.979,0.438,2.092,0.596,3.236,0.307c0.749,0.772,2.104,0.815,3.559,1.226
		C63.604,25.243,65.238,26.779,65.987,28.779z"/>
	<path id="XMLID_230_" fill="#254B35" d="M67.191,38.467c0.94,2.604,1.474,5.26,1.633,7.898c-1.051,2.503-2.459,4.852-4.189,6.97
		c0.105-0.226,0.209-0.453,0.31-0.684C66.972,48.028,67.665,43.156,67.191,38.467z"/>
	<path id="XMLID_174_" fill="#845DA7" d="M20.204,62.487c0.539,0.479,1.151,0.908,1.624,1.585c0.553,0.799,1.04,1.816,1.75,2.846
		c0.763,1.126,1.761,2.24,3.082,2.969c1.333,0.749,2.981,1.042,4.416,0.577c1.315-0.409,2.299-1.492,2.563-2.621
		c0.22-0.977-0.107-1.794-0.144-2.398c1.047-0.295,2.432,0.748,3.138,2.116c0.775,1.485,0.853,3.153,1.031,4.575
		c0.16,1.266,0.708,2.258,1.642,2.779c0.953,0.537,1.935,1.019,2.941,1.441c-2.396,0.145-4.832,0.164-6.903-0.543
		c-0.844-0.305-1.572-0.677-2.3-0.938c-0.793-0.276-1.695-0.445-2.691-0.633c-0.746-0.483-1.684-0.87-2.691-1.42
		c-1.226-0.665-2.469-1.563-3.503-2.767c-1.102-1.264-1.86-2.734-2.461-4.142C21.152,64.645,20.642,63.564,20.204,62.487z"/>
	<path id="XMLID_145_" fill="#325372" d="M45.56,70.295c-0.726-0.318-1.431-0.662-2.115-1.031c3.43-0.549,6.487-1.447,9.305-3.258
		c1.374,0.211,2.976-0.07,4.873-0.367c2.018-0.292,4.08-0.402,5.848-0.928c-0.571,0.787-1.366,1.44-2.363,1.937
		c-1.08,0.529-2.312,0.997-3.475,1.742c-1.185,0.758-2.235,1.829-2.755,3.116c-0.479,1.211-0.29,2.416-0.478,3.3
		c-1.324,0.532-3.129-0.33-4.599-1.54c-0.723-0.582-1.371-1.238-2.073-1.789C47.07,70.95,46.307,70.623,45.56,70.295z"/>
	<path id="XMLID_143_" fill="#2F5043" d="M60.204,60.076c2.786-1.138,5.392-2.715,7.705-4.69c-0.897,3.349-2.402,6.514-4.439,9.325
		c-1.768,0.525-3.83,0.636-5.848,0.928c-1.896,0.297-3.499,0.578-4.873,0.367C55.54,64.213,58.166,62.378,60.204,60.076z"/>
	<path id="XMLID_141_" fill="#1C4424" d="M60.204,60.076c1.753-1.979,3.253-4.234,4.431-6.741c1.73-2.118,3.138-4.467,4.189-6.97
		c0.186,3.069-0.136,6.113-0.915,9.021C65.596,57.361,62.99,58.938,60.204,60.076z"/>
</g>
</svg>
